<svg id="Layer_1" data-name="Layer 1" xmlns="http://www.w3.org/2000/svg" xmlns:xlink="http://www.w3.org/1999/xlink" viewBox="0 0 30 23"><defs><style>.cls-1,.cls-2,.cls-3{fill:#fff;}.cls-1{clip-rule:evenodd;}.cls-3{fill-rule:evenodd;}.cls-4{clip-path:url(#clip-path);}.cls-5{clip-path:url(#clip-path-2);}.cls-6{clip-path:url(#clip-path-3);}.cls-7{clip-path:url(#clip-path-4);}.cls-8{clip-path:url(#clip-path-5);}.cls-9{clip-path:url(#clip-path-6);}.cls-10{clip-path:url(#clip-path-7);}.cls-11{clip-path:url(#clip-path-8);}.cls-12{clip-path:url(#clip-path-9);}.cls-13{clip-path:url(#clip-path-10);}.cls-14{clip-path:url(#clip-path-11);}</style><clipPath id="clip-path" transform="translate(-4 -3)"><path class="cls-1" d="M0,0ZM0,0ZM0,0ZM0,0ZM0,0ZM0,0ZM0,0ZM0,0ZM0,0ZM0,0ZM0,0ZM0,0ZM0,0ZM0,0ZM0,0ZM0,0ZM0,0ZM0,0ZM0,0ZM0,0ZM0,0ZM0,0ZM0,0ZM0,0ZM0,0Z"/></clipPath><clipPath id="clip-path-2" transform="translate(-4 -3)"><polygon class="cls-1" points="6 24 6 24 6 27 6 27 4 25 4 25 4 27 4 27 4 24 4 24 6 26 6 26 6 24"/></clipPath><clipPath id="clip-path-3" transform="translate(-4 -3)"><rect class="cls-2" x="7" y="24" width="1" height="2.54"/></clipPath><clipPath id="clip-path-4" transform="translate(-4 -3)"><polygon class="cls-1" points="9 24 11 24 11 24 9 27 11 27 11 27 9 27 9 27 10 24 9 24 9 24"/></clipPath><clipPath id="clip-path-5" transform="translate(-4 -3)"><path class="cls-1" d="M0,0ZM0,0Z"/></clipPath><clipPath id="clip-path-6" transform="translate(-4 -3)"><polygon class="cls-1" points="18 24 18 24 18 27 18 27 18 25 17 26 17 26 16 25 16 27 15 27 15 24 16 24 17 26 18 24"/></clipPath><clipPath id="clip-path-7" transform="translate(-4 -3)"><rect class="cls-2" x="19" y="24" width="1" height="2.54"/></clipPath><clipPath id="clip-path-8" transform="translate(-4 -3)"><path class="cls-1" d="M0,0Z"/></clipPath><clipPath id="clip-path-9" transform="translate(-4 -3)"><rect class="cls-2" x="26" y="24" width="1" height="2.54"/></clipPath><clipPath id="clip-path-10" transform="translate(-4 -3)"><polygon class="cls-1" points="29 24 29 27 29 27 29 24 28 24 28 24 30 24 30 24 29 24"/></clipPath><clipPath id="clip-path-11" transform="translate(-4 -3)"><polygon class="cls-1" points="31 24 31 24 32 25 33 24 34 24 32 26 32 27 32 27 32 26 31 24"/></clipPath></defs><title>logo-mobile</title><path class="cls-3" d="M0,0ZM0,0ZM0,0ZM0,0ZM0,0ZM0,0ZM0,0ZM0,0ZM0,0ZM0,0ZM0,0ZM0,0ZM0,0ZM0,0ZM0,0ZM0,0ZM0,0ZM0,0ZM0,0ZM0,0ZM0,0ZM0,0ZM0,0ZM0,0ZM0,0Z" transform="translate(-4 -3)"/><g class="cls-4"><rect class="cls-2" x="5" width="20" height="18.56"/></g><polygon class="cls-3" points="2 21 3 21 3 23 2 23 1 22 1 22 1 23 0 23 0 21 0 21 2 23 2 23 2 21"/><g class="cls-5"><rect class="cls-2" y="21" width="3" height="2.54"/></g><rect class="cls-2" x="4" y="21" width="1" height="2.54"/><g class="cls-6"><rect class="cls-2" x="4" y="21" width="1" height="2.54"/></g><polygon class="cls-3" points="5 21 8 21 8 21 6 23 8 23 8 23 5 23 5 23 7 21 5 21 5 21"/><g class="cls-7"><rect class="cls-2" x="5" y="21" width="2" height="2.52"/></g><path class="cls-3" d="M0,0ZM0,0Z" transform="translate(-4 -3)"/><g class="cls-8"><rect class="cls-2" x="8" y="21" width="3" height="2.53"/></g><polygon class="cls-3" points="14 21 15 21 15 23 14 23 14 22 13 23 13 23 12 22 12 23 12 23 12 21 12 21 13 23 14 21"/><g class="cls-9"><rect class="cls-2" x="12" y="21" width="3" height="2.53"/></g><rect class="cls-2" x="16" y="21" width="1" height="2.54"/><g class="cls-10"><rect class="cls-2" x="16" y="21" width="1" height="2.54"/></g><path class="cls-3" d="M0,0Z" transform="translate(-4 -3)"/><g class="cls-11"><rect class="cls-2" x="19" y="21" width="3" height="2.54"/></g><rect class="cls-2" x="23" y="21" width="1" height="2.54"/><g class="cls-12"><rect class="cls-2" x="23" y="21" width="1" height="2.54"/></g><polygon class="cls-3" points="26 21 26 23 25 23 25 21 24 21 24 21 27 21 27 21 26 21"/><g class="cls-13"><rect class="cls-2" x="24" y="21" width="3" height="2.54"/></g><polygon class="cls-3" points="27 21 28 21 29 22 29 21 30 21 29 22 29 23 28 23 28 22 27 21"/><g class="cls-14"><rect class="cls-2" x="27" y="21" width="3" height="2.53"/></g></svg>