<?xml version="1.0" encoding="utf-8"?>
<!-- Generator: Adobe Illustrator 23.0.1, SVG Export Plug-In . SVG Version: 6.00 Build 0)  -->
<svg version="1.1" id="Layer_1" xmlns="http://www.w3.org/2000/svg" xmlns:xlink="http://www.w3.org/1999/xlink" x="0px" y="0px"
	 viewBox="0 0 595.3 841.9" style="enable-background:new 0 0 595.3 841.9;" xml:space="preserve">
<style type="text/css">
	.st0{clip-path:url(#SVGID_3_);fill:url(#SVGID_4_);}
	.st1{clip-path:url(#SVGID_7_);fill:url(#SVGID_8_);}
	.st2{clip-path:url(#SVGID_11_);fill:url(#SVGID_12_);}
	.st3{clip-path:url(#SVGID_15_);fill:url(#SVGID_16_);}
	.st4{clip-path:url(#SVGID_19_);fill:url(#SVGID_20_);}
	.st5{clip-path:url(#SVGID_23_);fill:url(#SVGID_24_);}
	.st6{clip-path:url(#SVGID_27_);fill:url(#SVGID_28_);}
	.st7{clip-path:url(#SVGID_31_);fill:url(#SVGID_32_);}
	.st8{clip-path:url(#SVGID_35_);fill:url(#SVGID_36_);}
	.st9{clip-path:url(#SVGID_39_);fill:url(#SVGID_40_);}
	.st10{clip-path:url(#SVGID_43_);fill:url(#SVGID_44_);}
	.st11{fill:none;stroke:#000000;stroke-width:9;stroke-miterlimit:10;}
	.st12{fill:none;stroke:url(#SVGID_45_);stroke-width:9;stroke-miterlimit:10;}
	.st13{fill:none;stroke:url(#SVGID_46_);stroke-width:9;stroke-miterlimit:10;}
</style>
<g>
	<g>
		<defs>
			<path id="SVGID_1_" d="M202.7,467.8h-15.3v4.8h15.3V467.8z M198.9,475.8h-21.8v4.5h21.8V475.8z M222.3,366.5v-3.4
				c-0.2,0-0.4,0.1-0.5,0.1c-0.4,0.1-0.6,0.4-0.7,0.5c-0.2,0.2-0.2,0.3-0.2,0.5c0,0.2,0,0.3,0,0.5c0.1,0.1,0.2,0.2,0.4,0.4
				c0.2,0.2,0.5,0.5,0.7,0.7C222.1,366.1,222.2,366.1,222.3,366.5z M222.3,429.6v-58.5c-0.1,0-0.3,0.1-0.4,0.1
				c-0.3,0.1-0.5,0.2-0.7,0.4c-0.2,0.2-0.5,0.3-0.8,0.5c-0.3,0.2-0.6,0.4-0.8,0.5c-0.2,0.2-0.4,0.3-0.5,0.5c0,0,0,0,0,0.1
				c0,0.1,0.1,0.3,0.1,0.4v54.9h0v1.2H222.3z M196.4,449.3h13.6v8.7h-13.6V449.3z M210.7,449.4h3.4v14.8h-3.4V449.4z M202.8,356.4
				L202.8,356.4c0.5,0,0.8,0.4,0.8,0.8v71.2h0v4.5H202v-4.5h0v-71.2C202,356.8,202.4,356.4,202.8,356.4z M206,355.2L206,355.2
				c0.7,0,1.2,0.6,1.2,1.2v72v3v1.6h-2.5v-1.6v-3v-72C204.7,355.8,205.3,355.2,206,355.2z M209.6,354.8L209.6,354.8
				c0.8,0,1.4,0.6,1.4,1.4v72.3v2.8v1.7h-2.7v-1.5c0-0.1,0-0.1,0-0.2v-75.1C208.2,355.4,208.9,354.8,209.6,354.8z M213.5,354.6
				L213.5,354.6c0.8,0,1.4,0.6,1.4,1.4v75.3c0,0.1,0,0.1,0,0.2v1.6h-2.7v-1.6c0-0.1,0-0.1,0-0.2V356
				C212.1,355.2,212.8,354.6,213.5,354.6z M251.6,360.4l-0.2,16.9l-17-16.2v104.2v4.5h0v2.6h0v4.5v3.3h-32.2v-4.5h3v-3.3h3v-3.9h2.6
				v-3.2h11.4v-13.8h-4.7c-0.6,0.2-0.8,0.5-0.9,1.2v11.4H215V452h0l0,0c0.1-0.9,0.6-2.3,2.1-2.7h5.1v-0.9h-26.1v-2.9H194v-4.6h28.2
				v-1h-22.9v-5.1h22.9V433h-5.1v0h-0.6v-4.5h0v-54.9c0-0.2,0.1-0.4,0.2-0.6l0,0c0-0.2,0.1-0.6,0.2-0.9c0.1-0.3,0.4-0.6,0.6-0.9
				c0.3-0.3,0.6-0.6,0.9-0.8c0.3-0.2,0.6-0.3,0.9-0.4c0.3-0.1,0.7-0.2,0.9-0.2c0.2-0.1,0.4-0.1,0.5-0.2c0.1-0.1,0.2-0.2,0.2-0.4
				c0-0.2,0.1-0.4,0-0.6c0-0.2-0.1-0.3-0.4-0.4c-0.2-0.1-0.6-0.2-1-0.3c-0.3-0.1-0.6-0.2-0.9-0.3c-0.3-0.2-0.5-0.4-0.7-0.7
				c-0.2-0.3-0.4-0.6-0.5-0.9c-0.1-0.4-0.1-0.8,0-1.2c0-0.4,0.1-0.8,0.3-1.2c0.2-0.4,0.5-0.8,0.9-1.2c0.3-0.4,0.7-0.6,1.1-0.9
				c0.4-0.2,0.7-0.5,1.1-0.6c0.4-0.1,0.8-0.2,1.1-0.2c0.1,0,0.1,0,0.2,0v-6.5h-19.7c2.6-3.5,5.2-2.9,8.4-2.9h11.4v-2.2
				c-5.6-0.4-10.3,0.1-14.6,1.3c-0.2-8.6,6.6-18.1,15.2-17.2L251.6,360.4z M208.4,461.1h-12.2v4.8h12.2V461.1z M397.3,467.8h0.1v4.8
				h-0.1h-15.1H382v-4.8h0.1H397.3z M407.6,475.8h0.1v4.5h-0.1h-21.6h-0.1v-4.5h0.1H407.6z M362.5,366.5v-3.4c0.2,0,0.4,0.1,0.5,0.1
				c0.4,0.1,0.6,0.4,0.7,0.5c0.2,0.2,0.2,0.3,0.2,0.5c0,0.2,0,0.3,0,0.5c-0.1,0.1-0.2,0.2-0.4,0.4c-0.2,0.2-0.5,0.5-0.7,0.7
				C362.7,366.1,362.7,366.1,362.5,366.5z M362.5,429.6v-58.5c0.1,0,0.3,0.1,0.4,0.1c0.3,0.1,0.5,0.2,0.7,0.4
				c0.2,0.2,0.5,0.3,0.8,0.5c0.3,0.2,0.6,0.4,0.8,0.5c0.2,0.2,0.4,0.3,0.5,0.5c0,0,0,0,0,0.1c0,0.1-0.1,0.3-0.1,0.4v54.9h0v1.2
				H362.5z M388.5,449.3h-13.6v8.7h13.6V449.3z M374.1,449.4h-3.4v14.8h3.4V449.4z M382,356.4L382,356.4c-0.5,0-0.8,0.4-0.8,0.8
				v71.2h0v4.5h1.7v-4.5h0v-71.2C382.8,356.8,382.5,356.4,382,356.4z M378.9,355.2L378.9,355.2c-0.7,0-1.2,0.6-1.2,1.2v72v3v1.6h2.5
				v-1.6v-3v-72C380.1,355.8,379.5,355.2,378.9,355.2z M375.2,354.8L375.2,354.8c-0.8,0-1.4,0.6-1.4,1.4v72.3v2.8v1.7h2.7v-1.5
				c0-0.1,0-0.1,0-0.2v-75.1C376.6,355.4,376,354.8,375.2,354.8z M371.3,354.6L371.3,354.6c-0.8,0-1.4,0.6-1.4,1.4v75.3
				c0,0.1,0,0.1,0,0.2v1.6h2.7v-1.6c0-0.1,0-0.1,0-0.2V356C372.7,355.2,372.1,354.6,371.3,354.6z M272.8,381.2v16l89.4,83.1l20.3,0
				v-4.5h-3v-3.3h-3v-3.9H374v-3.2h-11.4v-13.8h4.7c0.6,0.2,0.7,0.5,0.9,1.2v11.4h1.6V452h0l0,0c-0.1-0.9-0.6-2.3-2.1-2.7h-5.1v-0.9
				h26.1v-2.9h2.1v-4.6h-28.2v-1h22.9v-5.1h-22.9V433h5.1v0h0.6v-4.5h0v-54.9c0-0.2-0.1-0.4-0.2-0.6l0,0c0-0.2-0.1-0.6-0.2-0.9
				c-0.1-0.3-0.4-0.6-0.6-0.9c-0.3-0.3-0.6-0.6-0.9-0.8c-0.3-0.2-0.6-0.3-0.9-0.4c-0.3-0.1-0.7-0.2-0.9-0.2
				c-0.2-0.1-0.4-0.1-0.5-0.2c-0.1-0.1-0.2-0.2-0.2-0.4c0-0.2-0.1-0.4,0-0.6c0-0.2,0.1-0.3,0.4-0.4c0.2-0.1,0.6-0.2,1-0.3
				c0.3-0.1,0.6-0.2,0.9-0.3c0.3-0.2,0.5-0.4,0.7-0.7c0.2-0.3,0.4-0.6,0.5-0.9c0.1-0.4,0.1-0.8,0-1.2c0-0.4-0.1-0.8-0.3-1.2
				c-0.2-0.4-0.5-0.8-0.9-1.2c-0.3-0.4-0.7-0.6-1.1-0.9c-0.4-0.2-0.7-0.5-1.1-0.6c-0.4-0.1-0.8-0.2-1.1-0.2c-0.1,0-0.1,0-0.2,0v-6.5
				h19.7c-2.6-3.5-5.2-2.9-8.4-2.9h-11.4v-2.6c5.4-0.2,10.4,0.1,14.4,1.5c0.2-8.6-5.8-15.4-12.1-17.1l-12.8-0.1l0,16.3l0.1,0
				c-0.4,34.3,0.6,71.1,0.5,105L272.8,381.2z M388.5,461.1h0.1v4.8h-0.1h-12.1h-0.1v-4.8h0.1H388.5z M317.2,301.7h11.4h0.2v21.2
				h-11.6v-9.8h-49.9v188h50.9v-12.5h10.8v22.7h-10.8V511h-62.5v-0.6v-9.2v-188v-11.4h11.6H317.2z"/>
		</defs>
		<linearGradient id="SVGID_2_" gradientUnits="userSpaceOnUse" x1="177.1122" y1="406.5916" x2="407.7038" y2="406.5916">
			<stop  offset="0" style="stop-color:#7A4B20"/>
			<stop  offset="0.18" style="stop-color:#B58945"/>
			<stop  offset="0.33" style="stop-color:#DFA54D"/>
			<stop  offset="0.47" style="stop-color:#F8EF8E"/>
			<stop  offset="0.62" style="stop-color:#B58442"/>
			<stop  offset="0.81" style="stop-color:#BD7537"/>
			<stop  offset="1" style="stop-color:#9B4E27"/>
		</linearGradient>
		<use xlink:href="#SVGID_1_"  style="overflow:visible;fill-rule:evenodd;clip-rule:evenodd;fill:url(#SVGID_2_);"/>
		<clipPath id="SVGID_3_">
			<use xlink:href="#SVGID_1_"  style="overflow:visible;"/>
		</clipPath>
		<linearGradient id="SVGID_4_" gradientUnits="userSpaceOnUse" x1="138.147" y1="405.0713" x2="440.517" y2="408.0513">
			<stop  offset="0" style="stop-color:#7A4B20"/>
			<stop  offset="0.18" style="stop-color:#B58945"/>
			<stop  offset="0.33" style="stop-color:#DFA54D"/>
			<stop  offset="0.47" style="stop-color:#F8EF8E"/>
			<stop  offset="0.62" style="stop-color:#B58442"/>
			<stop  offset="0.81" style="stop-color:#BD7537"/>
			<stop  offset="1" style="stop-color:#9B4E27"/>
		</linearGradient>
		<rect x="177.1" y="301.7" class="st0" width="230.6" height="209.7"/>
	</g>
	<g>
		<defs>
			<polygon id="SVGID_5_" points="150.2,537.4 156.5,537.4 156.5,566.1 151.6,566.1 132.2,545.2 132.3,545.7 132.3,566.1 
				126.2,566.1 126.2,537.4 131.2,537.4 150.2,558 150.2,557.8 			"/>
		</defs>
		<linearGradient id="SVGID_6_" gradientUnits="userSpaceOnUse" x1="126.1691" y1="551.7597" x2="156.5009" y2="551.7597">
			<stop  offset="0" style="stop-color:#7A4B20"/>
			<stop  offset="0.18" style="stop-color:#B58945"/>
			<stop  offset="0.33" style="stop-color:#DFA54D"/>
			<stop  offset="0.47" style="stop-color:#F8EF8E"/>
			<stop  offset="0.62" style="stop-color:#B58442"/>
			<stop  offset="0.81" style="stop-color:#BD7537"/>
			<stop  offset="1" style="stop-color:#9B4E27"/>
		</linearGradient>
		<use xlink:href="#SVGID_5_"  style="overflow:visible;fill-rule:evenodd;clip-rule:evenodd;fill:url(#SVGID_6_);"/>
		<clipPath id="SVGID_7_">
			<use xlink:href="#SVGID_5_"  style="overflow:visible;"/>
		</clipPath>
		<linearGradient id="SVGID_8_" gradientUnits="userSpaceOnUse" x1="136.7017" y1="551.7141" x2="439.0717" y2="554.6941">
			<stop  offset="0" style="stop-color:#7A4B20"/>
			<stop  offset="0.18" style="stop-color:#B58945"/>
			<stop  offset="0.33" style="stop-color:#DFA54D"/>
			<stop  offset="0.47" style="stop-color:#F8EF8E"/>
			<stop  offset="0.62" style="stop-color:#B58442"/>
			<stop  offset="0.81" style="stop-color:#BD7537"/>
			<stop  offset="1" style="stop-color:#9B4E27"/>
		</linearGradient>
		<rect x="126.2" y="537.4" class="st1" width="30.3" height="28.7"/>
	</g>
	<g>
		<defs>
			<rect id="SVGID_9_" x="168.2" y="537.4" width="6.7" height="28.7"/>
		</defs>
		<linearGradient id="SVGID_10_" gradientUnits="userSpaceOnUse" x1="168.1746" y1="551.7872" x2="174.8419" y2="551.7872">
			<stop  offset="0" style="stop-color:#7A4B20"/>
			<stop  offset="0.18" style="stop-color:#B58945"/>
			<stop  offset="0.33" style="stop-color:#DFA54D"/>
			<stop  offset="0.47" style="stop-color:#F8EF8E"/>
			<stop  offset="0.62" style="stop-color:#B58442"/>
			<stop  offset="0.81" style="stop-color:#BD7537"/>
			<stop  offset="1" style="stop-color:#9B4E27"/>
		</linearGradient>
		<use xlink:href="#SVGID_9_"  style="overflow:visible;fill-rule:evenodd;clip-rule:evenodd;fill:url(#SVGID_10_);"/>
		<clipPath id="SVGID_11_">
			<use xlink:href="#SVGID_9_"  style="overflow:visible;"/>
		</clipPath>
		<linearGradient id="SVGID_12_" gradientUnits="userSpaceOnUse" x1="136.7044" y1="551.4442" x2="439.0744" y2="554.4242">
			<stop  offset="0" style="stop-color:#7A4B20"/>
			<stop  offset="0.18" style="stop-color:#B58945"/>
			<stop  offset="0.33" style="stop-color:#DFA54D"/>
			<stop  offset="0.47" style="stop-color:#F8EF8E"/>
			<stop  offset="0.62" style="stop-color:#B58442"/>
			<stop  offset="0.81" style="stop-color:#BD7537"/>
			<stop  offset="1" style="stop-color:#9B4E27"/>
		</linearGradient>
		<rect x="168.2" y="537.4" class="st2" width="6.7" height="28.7"/>
	</g>
	<g>
		<defs>
			<polygon id="SVGID_13_" points="185.1,537.6 211,537.6 211,539.1 190.8,564 211,564 211,566.1 183.1,566.1 183.1,564.8 
				203.3,539.7 185.1,539.7 			"/>
		</defs>
		<linearGradient id="SVGID_14_" gradientUnits="userSpaceOnUse" x1="183.072" y1="551.8544" x2="210.9862" y2="551.8544">
			<stop  offset="0" style="stop-color:#7A4B20"/>
			<stop  offset="0.18" style="stop-color:#B58945"/>
			<stop  offset="0.33" style="stop-color:#DFA54D"/>
			<stop  offset="0.47" style="stop-color:#F8EF8E"/>
			<stop  offset="0.62" style="stop-color:#B58442"/>
			<stop  offset="0.81" style="stop-color:#BD7537"/>
			<stop  offset="1" style="stop-color:#9B4E27"/>
		</linearGradient>
		<use xlink:href="#SVGID_13_"  style="overflow:visible;fill-rule:evenodd;clip-rule:evenodd;fill:url(#SVGID_14_);"/>
		<clipPath id="SVGID_15_">
			<use xlink:href="#SVGID_13_"  style="overflow:visible;"/>
		</clipPath>
		<linearGradient id="SVGID_16_" gradientUnits="userSpaceOnUse" x1="136.7062" y1="551.2598" x2="439.0762" y2="554.2399">
			<stop  offset="0" style="stop-color:#7A4B20"/>
			<stop  offset="0.18" style="stop-color:#B58945"/>
			<stop  offset="0.33" style="stop-color:#DFA54D"/>
			<stop  offset="0.47" style="stop-color:#F8EF8E"/>
			<stop  offset="0.62" style="stop-color:#B58442"/>
			<stop  offset="0.81" style="stop-color:#BD7537"/>
			<stop  offset="1" style="stop-color:#9B4E27"/>
		</linearGradient>
		<rect x="183.1" y="537.6" class="st3" width="27.9" height="28.5"/>
	</g>
	<g>
		<defs>
			<path id="SVGID_17_" d="M239.4,557.9l-6.2-15.4l-6.4,15.4H239.4z M217.1,566.1l13.1-28.6h6.4l12.8,28.5h-6.8l-2.4-6h-14.3
				l-2.5,6.1L217.1,566.1z"/>
		</defs>
		<linearGradient id="SVGID_18_" gradientUnits="userSpaceOnUse" x1="217.06" y1="551.7828" x2="249.4436" y2="551.7828">
			<stop  offset="0" style="stop-color:#7A4B20"/>
			<stop  offset="0.18" style="stop-color:#B58945"/>
			<stop  offset="0.33" style="stop-color:#DFA54D"/>
			<stop  offset="0.47" style="stop-color:#F8EF8E"/>
			<stop  offset="0.62" style="stop-color:#B58442"/>
			<stop  offset="0.81" style="stop-color:#BD7537"/>
			<stop  offset="1" style="stop-color:#9B4E27"/>
		</linearGradient>
		<use xlink:href="#SVGID_17_"  style="overflow:visible;fill-rule:evenodd;clip-rule:evenodd;fill:url(#SVGID_18_);"/>
		<clipPath id="SVGID_19_">
			<use xlink:href="#SVGID_17_"  style="overflow:visible;"/>
		</clipPath>
		<linearGradient id="SVGID_20_" gradientUnits="userSpaceOnUse" x1="136.7104" y1="550.8314" x2="439.0804" y2="553.8113">
			<stop  offset="0" style="stop-color:#7A4B20"/>
			<stop  offset="0.18" style="stop-color:#B58945"/>
			<stop  offset="0.33" style="stop-color:#DFA54D"/>
			<stop  offset="0.47" style="stop-color:#F8EF8E"/>
			<stop  offset="0.62" style="stop-color:#B58442"/>
			<stop  offset="0.81" style="stop-color:#BD7537"/>
			<stop  offset="1" style="stop-color:#9B4E27"/>
		</linearGradient>
		<rect x="217.1" y="537.5" class="st4" width="32.4" height="28.6"/>
	</g>
	<g>
		<defs>
			<polygon id="SVGID_21_" points="287.9,537.5 294.1,537.5 294.1,566.1 287.9,566.1 287.9,547.2 276.7,563.2 275.4,563.2 264,547 
				264,566.1 257.8,566.1 257.8,537.5 264.2,537.5 276,556 			"/>
		</defs>
		<linearGradient id="SVGID_22_" gradientUnits="userSpaceOnUse" x1="257.8443" y1="551.7705" x2="294.0864" y2="551.7705">
			<stop  offset="0" style="stop-color:#7A4B20"/>
			<stop  offset="0.18" style="stop-color:#B58945"/>
			<stop  offset="0.33" style="stop-color:#DFA54D"/>
			<stop  offset="0.47" style="stop-color:#F8EF8E"/>
			<stop  offset="0.62" style="stop-color:#B58442"/>
			<stop  offset="0.81" style="stop-color:#BD7537"/>
			<stop  offset="1" style="stop-color:#9B4E27"/>
		</linearGradient>
		<use xlink:href="#SVGID_21_"  style="overflow:visible;fill-rule:evenodd;clip-rule:evenodd;fill:url(#SVGID_22_);"/>
		<clipPath id="SVGID_23_">
			<use xlink:href="#SVGID_21_"  style="overflow:visible;"/>
		</clipPath>
		<linearGradient id="SVGID_24_" gradientUnits="userSpaceOnUse" x1="136.7147" y1="550.3981" x2="439.0847" y2="553.3782">
			<stop  offset="0" style="stop-color:#7A4B20"/>
			<stop  offset="0.18" style="stop-color:#B58945"/>
			<stop  offset="0.33" style="stop-color:#DFA54D"/>
			<stop  offset="0.47" style="stop-color:#F8EF8E"/>
			<stop  offset="0.62" style="stop-color:#B58442"/>
			<stop  offset="0.81" style="stop-color:#BD7537"/>
			<stop  offset="1" style="stop-color:#9B4E27"/>
		</linearGradient>
		<rect x="257.8" y="537.5" class="st5" width="36.2" height="28.6"/>
	</g>
	<g>
		<defs>
			<rect id="SVGID_25_" x="305.9" y="537.4" width="6.7" height="28.7"/>
		</defs>
		<linearGradient id="SVGID_26_" gradientUnits="userSpaceOnUse" x1="305.876" y1="551.7872" x2="312.5433" y2="551.7872">
			<stop  offset="0" style="stop-color:#7A4B20"/>
			<stop  offset="0.18" style="stop-color:#B58945"/>
			<stop  offset="0.33" style="stop-color:#DFA54D"/>
			<stop  offset="0.47" style="stop-color:#F8EF8E"/>
			<stop  offset="0.62" style="stop-color:#B58442"/>
			<stop  offset="0.81" style="stop-color:#BD7537"/>
			<stop  offset="1" style="stop-color:#9B4E27"/>
		</linearGradient>
		<use xlink:href="#SVGID_25_"  style="overflow:visible;fill-rule:evenodd;clip-rule:evenodd;fill:url(#SVGID_26_);"/>
		<clipPath id="SVGID_27_">
			<use xlink:href="#SVGID_25_"  style="overflow:visible;"/>
		</clipPath>
		<linearGradient id="SVGID_28_" gradientUnits="userSpaceOnUse" x1="136.7178" y1="550.0872" x2="439.0878" y2="553.0673">
			<stop  offset="0" style="stop-color:#7A4B20"/>
			<stop  offset="0.18" style="stop-color:#B58945"/>
			<stop  offset="0.33" style="stop-color:#DFA54D"/>
			<stop  offset="0.47" style="stop-color:#F8EF8E"/>
			<stop  offset="0.62" style="stop-color:#B58442"/>
			<stop  offset="0.81" style="stop-color:#BD7537"/>
			<stop  offset="1" style="stop-color:#9B4E27"/>
		</linearGradient>
		<rect x="305.9" y="537.4" class="st6" width="6.7" height="28.7"/>
	</g>
	<g>
		<defs>
			<path id="SVGID_29_" d="M366.1,546.6l6.9,0.1l-0.1-7.2c-0.9-1.2-2.4-1.9-4.7-2h-21.1c-2,0.1-3.1,0.8-3.5,1.9v25.5
				c0.8,0.8,2.1,1.3,3.8,1.3h23.1c1.4-0.3,2.3-0.9,2.6-1.9v-7h-6.9v6.8h-16v-24.4h16V546.6z"/>
		</defs>
		<linearGradient id="SVGID_30_" gradientUnits="userSpaceOnUse" x1="343.456" y1="551.818" x2="372.9451" y2="551.818">
			<stop  offset="0" style="stop-color:#7A4B20"/>
			<stop  offset="0.18" style="stop-color:#B58945"/>
			<stop  offset="0.33" style="stop-color:#DFA54D"/>
			<stop  offset="0.47" style="stop-color:#F8EF8E"/>
			<stop  offset="0.62" style="stop-color:#B58442"/>
			<stop  offset="0.81" style="stop-color:#BD7537"/>
			<stop  offset="1" style="stop-color:#9B4E27"/>
		</linearGradient>
		<use xlink:href="#SVGID_29_"  style="overflow:visible;fill-rule:evenodd;clip-rule:evenodd;fill:url(#SVGID_30_);"/>
		<clipPath id="SVGID_31_">
			<use xlink:href="#SVGID_29_"  style="overflow:visible;"/>
		</clipPath>
		<linearGradient id="SVGID_32_" gradientUnits="userSpaceOnUse" x1="136.7222" y1="549.6352" x2="439.0922" y2="552.6152">
			<stop  offset="0" style="stop-color:#7A4B20"/>
			<stop  offset="0.18" style="stop-color:#B58945"/>
			<stop  offset="0.33" style="stop-color:#DFA54D"/>
			<stop  offset="0.47" style="stop-color:#F8EF8E"/>
			<stop  offset="0.62" style="stop-color:#B58442"/>
			<stop  offset="0.81" style="stop-color:#BD7537"/>
			<stop  offset="1" style="stop-color:#9B4E27"/>
		</linearGradient>
		<rect x="343.5" y="537.5" class="st7" width="29.5" height="28.6"/>
	</g>
	<g>
		<defs>
			<rect id="SVGID_33_" x="383.7" y="537.4" width="6.7" height="28.7"/>
		</defs>
		<linearGradient id="SVGID_34_" gradientUnits="userSpaceOnUse" x1="383.7329" y1="551.7872" x2="390.4003" y2="551.7872">
			<stop  offset="0" style="stop-color:#7A4B20"/>
			<stop  offset="0.18" style="stop-color:#B58945"/>
			<stop  offset="0.33" style="stop-color:#DFA54D"/>
			<stop  offset="0.47" style="stop-color:#F8EF8E"/>
			<stop  offset="0.62" style="stop-color:#B58442"/>
			<stop  offset="0.81" style="stop-color:#BD7537"/>
			<stop  offset="1" style="stop-color:#9B4E27"/>
		</linearGradient>
		<use xlink:href="#SVGID_33_"  style="overflow:visible;fill-rule:evenodd;clip-rule:evenodd;fill:url(#SVGID_34_);"/>
		<clipPath id="SVGID_35_">
			<use xlink:href="#SVGID_33_"  style="overflow:visible;"/>
		</clipPath>
		<linearGradient id="SVGID_36_" gradientUnits="userSpaceOnUse" x1="136.7253" y1="549.3199" x2="439.0953" y2="552.3">
			<stop  offset="0" style="stop-color:#7A4B20"/>
			<stop  offset="0.18" style="stop-color:#B58945"/>
			<stop  offset="0.33" style="stop-color:#DFA54D"/>
			<stop  offset="0.47" style="stop-color:#F8EF8E"/>
			<stop  offset="0.62" style="stop-color:#B58442"/>
			<stop  offset="0.81" style="stop-color:#BD7537"/>
			<stop  offset="1" style="stop-color:#9B4E27"/>
		</linearGradient>
		<rect x="383.7" y="537.4" class="st8" width="6.7" height="28.7"/>
	</g>
	<g>
		<defs>
			<polygon id="SVGID_37_" points="416.7,539.7 416.7,566.1 410.1,566.1 410.1,539.7 398.5,539.7 398.5,537.4 428.2,537.4 
				428.2,539.7 			"/>
		</defs>
		<linearGradient id="SVGID_38_" gradientUnits="userSpaceOnUse" x1="398.5448" y1="551.7708" x2="428.2422" y2="551.7708">
			<stop  offset="0" style="stop-color:#7A4B20"/>
			<stop  offset="0.18" style="stop-color:#B58945"/>
			<stop  offset="0.33" style="stop-color:#DFA54D"/>
			<stop  offset="0.47" style="stop-color:#F8EF8E"/>
			<stop  offset="0.62" style="stop-color:#B58442"/>
			<stop  offset="0.81" style="stop-color:#BD7537"/>
			<stop  offset="1" style="stop-color:#9B4E27"/>
		</linearGradient>
		<use xlink:href="#SVGID_37_"  style="overflow:visible;fill-rule:evenodd;clip-rule:evenodd;fill:url(#SVGID_38_);"/>
		<clipPath id="SVGID_39_">
			<use xlink:href="#SVGID_37_"  style="overflow:visible;"/>
		</clipPath>
		<linearGradient id="SVGID_40_" gradientUnits="userSpaceOnUse" x1="136.728" y1="549.0441" x2="439.0981" y2="552.0241">
			<stop  offset="0" style="stop-color:#7A4B20"/>
			<stop  offset="0.18" style="stop-color:#B58945"/>
			<stop  offset="0.33" style="stop-color:#DFA54D"/>
			<stop  offset="0.47" style="stop-color:#F8EF8E"/>
			<stop  offset="0.62" style="stop-color:#B58442"/>
			<stop  offset="0.81" style="stop-color:#BD7537"/>
			<stop  offset="1" style="stop-color:#9B4E27"/>
		</linearGradient>
		<rect x="398.5" y="537.4" class="st9" width="29.7" height="28.7"/>
	</g>
	<g>
		<defs>
			<polygon id="SVGID_41_" points="431.7,537.5 438.8,537.5 448.6,551.7 458.5,537.5 465.1,537.5 451.7,555.1 451.7,566.1 
				445.2,566.1 445.2,554.8 			"/>
		</defs>
		<linearGradient id="SVGID_42_" gradientUnits="userSpaceOnUse" x1="431.7096" y1="551.7756" x2="465.1068" y2="551.7756">
			<stop  offset="0" style="stop-color:#7A4B20"/>
			<stop  offset="0.18" style="stop-color:#B58945"/>
			<stop  offset="0.33" style="stop-color:#DFA54D"/>
			<stop  offset="0.47" style="stop-color:#F8EF8E"/>
			<stop  offset="0.62" style="stop-color:#B58442"/>
			<stop  offset="0.81" style="stop-color:#BD7537"/>
			<stop  offset="1" style="stop-color:#9B4E27"/>
		</linearGradient>
		<use xlink:href="#SVGID_41_"  style="overflow:visible;fill-rule:evenodd;clip-rule:evenodd;fill:url(#SVGID_42_);"/>
		<clipPath id="SVGID_43_">
			<use xlink:href="#SVGID_41_"  style="overflow:visible;"/>
		</clipPath>
		<linearGradient id="SVGID_44_" gradientUnits="userSpaceOnUse" x1="136.7314" y1="548.7039" x2="439.1014" y2="551.6839">
			<stop  offset="0" style="stop-color:#7A4B20"/>
			<stop  offset="0.18" style="stop-color:#B58945"/>
			<stop  offset="0.33" style="stop-color:#DFA54D"/>
			<stop  offset="0.47" style="stop-color:#F8EF8E"/>
			<stop  offset="0.62" style="stop-color:#B58442"/>
			<stop  offset="0.81" style="stop-color:#BD7537"/>
			<stop  offset="1" style="stop-color:#9B4E27"/>
		</linearGradient>
		<rect x="431.7" y="537.5" class="st10" width="33.4" height="28.6"/>
	</g>
</g>
<path class="st11" d="M109.6,523.6"/>
<path class="st11" d="M162.3,576.3"/>
<linearGradient id="SVGID_45_" gradientUnits="userSpaceOnUse" x1="159.1509" y1="641.4711" x2="428.2969" y2="641.4711">
	<stop  offset="0" style="stop-color:#7A4B20"/>
	<stop  offset="0.18" style="stop-color:#B58945"/>
	<stop  offset="0.33" style="stop-color:#DFA54D"/>
	<stop  offset="0.47" style="stop-color:#F8EF8E"/>
	<stop  offset="0.62" style="stop-color:#B58442"/>
	<stop  offset="0.81" style="stop-color:#BD7537"/>
	<stop  offset="1" style="stop-color:#9B4E27"/>
</linearGradient>
<path class="st12" d="M425.1,573.5c-44.3,44.3-88.5,88.5-132.8,132.8c-43.3-43.3-86.6-86.6-130-130"/>
<linearGradient id="SVGID_46_" gradientUnits="userSpaceOnUse" x1="1.5294" y1="328.9229" x2="583.0848" y2="328.9229">
	<stop  offset="0" style="stop-color:#7A4B20"/>
	<stop  offset="0.18" style="stop-color:#B58945"/>
	<stop  offset="0.33" style="stop-color:#DFA54D"/>
	<stop  offset="0.47" style="stop-color:#F8EF8E"/>
	<stop  offset="0.62" style="stop-color:#B58442"/>
	<stop  offset="0.81" style="stop-color:#BD7537"/>
	<stop  offset="1" style="stop-color:#9B4E27"/>
</linearGradient>
<path class="st13" d="M109.6,523.6C75.7,489.7,41.8,455.8,7.9,421.9c94.8-94.8,189.6-189.6,284.4-284.4l284.4,284.4
	c-33.1,33.1-66.2,66.2-99.3,99.3"/>
<path class="st11" d="M112.8,521.7"/>
</svg>
