<?xml version="1.0" encoding="utf-8"?>
<!-- Generator: Adobe Illustrator 23.0.1, SVG Export Plug-In . SVG Version: 6.00 Build 0)  -->
<svg version="1.1" id="Layer_1" xmlns="http://www.w3.org/2000/svg" xmlns:xlink="http://www.w3.org/1999/xlink" x="0px" y="0px"
	 viewBox="0 0 40 40" style="enable-background:new 0 0 40 40;" xml:space="preserve">
<style type="text/css">
	.st0{clip-path:url(#SVGID_3_);fill:url(#SVGID_4_);}
	.st1{clip-path:url(#SVGID_7_);fill:url(#SVGID_8_);}
	.st2{clip-path:url(#SVGID_11_);fill:url(#SVGID_12_);}
	.st3{clip-path:url(#SVGID_15_);fill:url(#SVGID_16_);}
	.st4{clip-path:url(#SVGID_19_);fill:url(#SVGID_20_);}
	.st5{clip-path:url(#SVGID_23_);fill:url(#SVGID_24_);}
	.st6{clip-path:url(#SVGID_27_);fill:url(#SVGID_28_);}
	.st7{clip-path:url(#SVGID_31_);fill:url(#SVGID_32_);}
	.st8{clip-path:url(#SVGID_35_);fill:url(#SVGID_36_);}
	.st9{clip-path:url(#SVGID_39_);fill:url(#SVGID_40_);}
	.st10{clip-path:url(#SVGID_43_);fill:url(#SVGID_44_);}
	.st11{fill:none;stroke:#000000;stroke-width:9;stroke-miterlimit:10;}
	.st12{fill:none;stroke:url(#SVGID_45_);stroke-width:0.75;stroke-miterlimit:10;}
	.st13{fill:none;stroke:url(#SVGID_46_);stroke-width:0.75;stroke-miterlimit:10;}
</style>
<g>
	<g>
		<g>
			<defs>
				<path id="SVGID_1_" d="M14,23.1h-1v0.3h1V23.1z M13.8,23.7h-1.5V24h1.5V23.7z M15.3,16.2V16c0,0,0,0,0,0c0,0,0,0,0,0
					c0,0,0,0,0,0c0,0,0,0,0,0C15.2,16.1,15.2,16.1,15.3,16.2C15.3,16.1,15.3,16.2,15.3,16.2C15.3,16.2,15.3,16.2,15.3,16.2z
					 M15.3,20.5v-4c0,0,0,0,0,0c0,0,0,0,0,0c0,0,0,0-0.1,0c0,0,0,0-0.1,0c0,0,0,0,0,0c0,0,0,0,0,0c0,0,0,0,0,0v3.8h0v0.1H15.3z
					 M13.6,21.9h0.9v0.6h-0.9V21.9z M14.6,21.9h0.2v1h-0.2V21.9z M14,15.5L14,15.5C14.1,15.5,14.1,15.5,14,15.5l0.1,4.9h0v0.3H14
					v-0.3h0L14,15.5C14,15.5,14,15.5,14,15.5z M14.2,15.4L14.2,15.4C14.3,15.4,14.3,15.5,14.2,15.4l0.1,5v0.2v0.1h-0.2v-0.1v-0.2
					L14.2,15.4C14.2,15.5,14.2,15.4,14.2,15.4z M14.5,15.4L14.5,15.4C14.5,15.4,14.6,15.5,14.5,15.4l0.1,5v0.2v0.1h-0.2v-0.1
					c0,0,0,0,0,0L14.5,15.4C14.4,15.5,14.4,15.4,14.5,15.4z M14.7,15.4L14.7,15.4C14.8,15.4,14.8,15.4,14.7,15.4l0.1,5.2
					c0,0,0,0,0,0v0.1h-0.2v-0.1c0,0,0,0,0,0L14.7,15.4C14.7,15.4,14.7,15.4,14.7,15.4z M17.3,15.8l0,1.2l-1.1-1.1V23v0.3h0v0.2h0
					v0.3V24H14v-0.3h0.2v-0.2h0.2v-0.3h0.2V23h0.8V22H15c0,0-0.1,0-0.1,0.1v0.8h-0.1v-0.8h0l0,0c0-0.1,0-0.2,0.1-0.2h0.3v-0.1h-1.7
					v-0.2h-0.1v-0.3h1.9v-0.1h-1.5v-0.3h1.5v-0.1H15v0h0v-0.3h0v-3.8c0,0,0,0,0,0l0,0c0,0,0,0,0-0.1c0,0,0,0,0-0.1c0,0,0,0,0.1-0.1
					c0,0,0,0,0.1,0c0,0,0,0,0.1,0c0,0,0,0,0,0c0,0,0,0,0,0c0,0,0,0,0,0c0,0,0,0,0,0c0,0,0,0-0.1,0c0,0,0,0-0.1,0c0,0,0,0,0,0
					c0,0,0,0,0-0.1c0,0,0-0.1,0-0.1c0,0,0-0.1,0-0.1c0,0,0-0.1,0.1-0.1c0,0,0,0,0.1-0.1c0,0,0,0,0.1,0c0,0,0.1,0,0.1,0c0,0,0,0,0,0
					v-0.4H14c0.2-0.2,0.3-0.2,0.6-0.2h0.8V15c-0.4,0-0.7,0-1,0.1c0-0.6,0.4-1.2,1-1.2L17.3,15.8z M14.4,22.7h-0.8V23h0.8V22.7z
					 M27,23.1L27,23.1l0,0.3h0h-1h0v-0.3h0H27z M27.7,23.7L27.7,23.7l0,0.3h0h-1.4h0v-0.3h0H27.7z M24.7,16.2V16c0,0,0,0,0,0
					c0,0,0,0,0,0c0,0,0,0,0,0c0,0,0,0,0,0C24.8,16.1,24.8,16.1,24.7,16.2C24.7,16.1,24.7,16.2,24.7,16.2
					C24.7,16.2,24.7,16.2,24.7,16.2z M24.7,20.5v-4c0,0,0,0,0,0c0,0,0,0,0,0c0,0,0,0,0.1,0c0,0,0,0,0.1,0c0,0,0,0,0,0c0,0,0,0,0,0
					c0,0,0,0,0,0v3.8h0v0.1H24.7z M26.4,21.9h-0.9v0.6h0.9V21.9z M25.5,21.9h-0.2v1h0.2V21.9z M26,15.5L26,15.5
					C26,15.5,25.9,15.5,26,15.5l-0.1,4.9h0v0.3H26v-0.3h0L26,15.5C26,15.5,26,15.5,26,15.5z M25.8,15.4L25.8,15.4
					C25.7,15.4,25.7,15.5,25.8,15.4l-0.1,5v0.2v0.1h0.2v-0.1v-0.2L25.8,15.4C25.9,15.5,25.8,15.4,25.8,15.4z M25.5,15.4L25.5,15.4
					C25.5,15.4,25.4,15.5,25.5,15.4l-0.1,5v0.2v0.1h0.2v-0.1c0,0,0,0,0,0L25.5,15.4C25.6,15.5,25.6,15.4,25.5,15.4z M25.3,15.4
					L25.3,15.4C25.2,15.4,25.2,15.4,25.3,15.4l-0.1,5.2c0,0,0,0,0,0v0.1h0.2v-0.1c0,0,0,0,0,0L25.3,15.4
					C25.4,15.4,25.3,15.4,25.3,15.4z M18.7,17.2v1.1l6,5.7l1.4,0v-0.3h-0.2v-0.2h-0.2v-0.3h-0.2V23h-0.8V22H25c0,0,0.1,0,0.1,0.1
					v0.8h0.1v-0.8h0l0,0c0-0.1,0-0.2-0.1-0.2h-0.3v-0.1h1.7v-0.2h0.1v-0.3h-1.9v-0.1h1.5v-0.3h-1.5v-0.1H25v0h0v-0.3h0v-3.8
					c0,0,0,0,0,0l0,0c0,0,0,0,0-0.1c0,0,0,0,0-0.1c0,0,0,0-0.1-0.1c0,0,0,0-0.1,0c0,0,0,0-0.1,0c0,0,0,0,0,0c0,0,0,0,0,0
					c0,0,0,0,0,0c0,0,0,0,0,0c0,0,0,0,0.1,0c0,0,0,0,0.1,0c0,0,0,0,0,0c0,0,0,0,0-0.1c0,0,0-0.1,0-0.1c0,0,0-0.1,0-0.1
					c0,0,0-0.1-0.1-0.1c0,0,0,0-0.1-0.1c0,0,0,0-0.1,0c0,0-0.1,0-0.1,0c0,0,0,0,0,0v-0.4H26c-0.2-0.2-0.3-0.2-0.6-0.2h-0.8V15
					c0.4,0,0.7,0,1,0.1c0-0.6-0.4-1.1-0.8-1.2l-0.9,0l0,1.1l0,0c0,2.3,0,4.9,0,7.2L18.7,17.2z M26.4,22.7L26.4,22.7l0,0.3h0h-0.8h0
					v-0.3h0H26.4z M21.7,11.8h0.8h0v1.5h-0.8v-0.7h-3.3v12.9h3.4v-0.9h0.7v1.6h-0.7v0h-4.2v0v-0.6V12.6v-0.8h0.8H21.7z"/>
			</defs>
			<linearGradient id="SVGID_2_" gradientUnits="userSpaceOnUse" x1="12.3144" y1="18.9541" x2="27.6991" y2="18.9541">
				<stop  offset="0" style="stop-color:#7A4B20"/>
				<stop  offset="0.18" style="stop-color:#B58945"/>
				<stop  offset="0.33" style="stop-color:#DFA54D"/>
				<stop  offset="0.47" style="stop-color:#F8EF8E"/>
				<stop  offset="0.62" style="stop-color:#B58442"/>
				<stop  offset="0.81" style="stop-color:#BD7537"/>
				<stop  offset="1" style="stop-color:#9B4E27"/>
			</linearGradient>
			<use xlink:href="#SVGID_1_"  style="overflow:visible;fill-rule:evenodd;clip-rule:evenodd;fill:url(#SVGID_2_);"/>
			<clipPath id="SVGID_3_">
				<use xlink:href="#SVGID_1_"  style="overflow:visible;"/>
			</clipPath>
			<linearGradient id="SVGID_4_" gradientUnits="userSpaceOnUse" x1="9.7123" y1="18.8526" x2="29.8906" y2="19.0515">
				<stop  offset="0" style="stop-color:#7A4B20"/>
				<stop  offset="0.18" style="stop-color:#B58945"/>
				<stop  offset="0.33" style="stop-color:#DFA54D"/>
				<stop  offset="0.47" style="stop-color:#F8EF8E"/>
				<stop  offset="0.62" style="stop-color:#B58442"/>
				<stop  offset="0.81" style="stop-color:#BD7537"/>
				<stop  offset="1" style="stop-color:#9B4E27"/>
			</linearGradient>
			<rect x="12.3" y="11.8" class="st0" width="15.4" height="14.4"/>
		</g>
		<g>
			<defs>
				<polygon id="SVGID_5_" points="10.5,27.9 10.9,27.9 10.9,29.9 10.6,29.9 9.3,28.4 9.3,28.5 9.3,29.9 8.9,29.9 8.9,27.9 
					9.2,27.9 10.5,29.3 10.5,29.3 				"/>
			</defs>
			<linearGradient id="SVGID_6_" gradientUnits="userSpaceOnUse" x1="8.9155" y1="28.8916" x2="10.9392" y2="28.8916">
				<stop  offset="0" style="stop-color:#7A4B20"/>
				<stop  offset="0.18" style="stop-color:#B58945"/>
				<stop  offset="0.33" style="stop-color:#DFA54D"/>
				<stop  offset="0.47" style="stop-color:#F8EF8E"/>
				<stop  offset="0.62" style="stop-color:#B58442"/>
				<stop  offset="0.81" style="stop-color:#BD7537"/>
				<stop  offset="1" style="stop-color:#9B4E27"/>
			</linearGradient>
			<use xlink:href="#SVGID_5_"  style="overflow:visible;fill-rule:evenodd;clip-rule:evenodd;fill:url(#SVGID_6_);"/>
			<clipPath id="SVGID_7_">
				<use xlink:href="#SVGID_5_"  style="overflow:visible;"/>
			</clipPath>
			<linearGradient id="SVGID_8_" gradientUnits="userSpaceOnUse" x1="9.6182" y1="28.8886" x2="29.7967" y2="29.0875">
				<stop  offset="0" style="stop-color:#7A4B20"/>
				<stop  offset="0.18" style="stop-color:#B58945"/>
				<stop  offset="0.33" style="stop-color:#DFA54D"/>
				<stop  offset="0.47" style="stop-color:#F8EF8E"/>
				<stop  offset="0.62" style="stop-color:#B58442"/>
				<stop  offset="0.81" style="stop-color:#BD7537"/>
				<stop  offset="1" style="stop-color:#9B4E27"/>
			</linearGradient>
			<rect x="8.9" y="27.9" class="st1" width="2" height="2"/>
		</g>
		<g>
			<defs>
				<rect id="SVGID_9_" x="11.7" y="27.9" width="0.4" height="2"/>
			</defs>
			<linearGradient id="SVGID_10_" gradientUnits="userSpaceOnUse" x1="11.7181" y1="28.8935" x2="12.1629" y2="28.8935">
				<stop  offset="0" style="stop-color:#7A4B20"/>
				<stop  offset="0.18" style="stop-color:#B58945"/>
				<stop  offset="0.33" style="stop-color:#DFA54D"/>
				<stop  offset="0.47" style="stop-color:#F8EF8E"/>
				<stop  offset="0.62" style="stop-color:#B58442"/>
				<stop  offset="0.81" style="stop-color:#BD7537"/>
				<stop  offset="1" style="stop-color:#9B4E27"/>
			</linearGradient>
			<use xlink:href="#SVGID_9_"  style="overflow:visible;fill-rule:evenodd;clip-rule:evenodd;fill:url(#SVGID_10_);"/>
			<clipPath id="SVGID_11_">
				<use xlink:href="#SVGID_9_"  style="overflow:visible;"/>
			</clipPath>
			<linearGradient id="SVGID_12_" gradientUnits="userSpaceOnUse" x1="9.616" y1="28.8706" x2="29.811" y2="29.0696">
				<stop  offset="0" style="stop-color:#7A4B20"/>
				<stop  offset="0.18" style="stop-color:#B58945"/>
				<stop  offset="0.33" style="stop-color:#DFA54D"/>
				<stop  offset="0.47" style="stop-color:#F8EF8E"/>
				<stop  offset="0.62" style="stop-color:#B58442"/>
				<stop  offset="0.81" style="stop-color:#BD7537"/>
				<stop  offset="1" style="stop-color:#9B4E27"/>
			</linearGradient>
			<rect x="11.7" y="27.9" class="st2" width="0.4" height="2"/>
		</g>
		<g>
			<defs>
				<polygon id="SVGID_13_" points="12.9,27.9 14.6,27.9 14.6,28 13.2,29.7 14.6,29.7 14.6,29.9 12.7,29.9 12.7,29.8 14.1,28.1 
					12.9,28.1 				"/>
			</defs>
			<linearGradient id="SVGID_14_" gradientUnits="userSpaceOnUse" x1="12.712" y1="28.8981" x2="14.5744" y2="28.8981">
				<stop  offset="0" style="stop-color:#7A4B20"/>
				<stop  offset="0.18" style="stop-color:#B58945"/>
				<stop  offset="0.33" style="stop-color:#DFA54D"/>
				<stop  offset="0.47" style="stop-color:#F8EF8E"/>
				<stop  offset="0.62" style="stop-color:#B58442"/>
				<stop  offset="0.81" style="stop-color:#BD7537"/>
				<stop  offset="1" style="stop-color:#9B4E27"/>
			</linearGradient>
			<use xlink:href="#SVGID_13_"  style="overflow:visible;fill-rule:evenodd;clip-rule:evenodd;fill:url(#SVGID_14_);"/>
			<clipPath id="SVGID_15_">
				<use xlink:href="#SVGID_13_"  style="overflow:visible;"/>
			</clipPath>
			<linearGradient id="SVGID_16_" gradientUnits="userSpaceOnUse" x1="9.6175" y1="28.8584" x2="29.7964" y2="29.0573">
				<stop  offset="0" style="stop-color:#7A4B20"/>
				<stop  offset="0.18" style="stop-color:#B58945"/>
				<stop  offset="0.33" style="stop-color:#DFA54D"/>
				<stop  offset="0.47" style="stop-color:#F8EF8E"/>
				<stop  offset="0.62" style="stop-color:#B58442"/>
				<stop  offset="0.81" style="stop-color:#BD7537"/>
				<stop  offset="1" style="stop-color:#9B4E27"/>
			</linearGradient>
			<rect x="12.7" y="27.9" class="st3" width="1.9" height="2"/>
		</g>
		<g>
			<defs>
				<path id="SVGID_17_" d="M16.5,29.3l-0.4-1.1l-0.4,1.1H16.5z M15,29.9l0.9-2h0.4l0.9,1.9h-0.5l-0.2-0.4h-1l-0.2,0.4L15,29.9z"/>
			</defs>
			<linearGradient id="SVGID_18_" gradientUnits="userSpaceOnUse" x1="14.9796" y1="28.8932" x2="17.1402" y2="28.8932">
				<stop  offset="0" style="stop-color:#7A4B20"/>
				<stop  offset="0.18" style="stop-color:#B58945"/>
				<stop  offset="0.33" style="stop-color:#DFA54D"/>
				<stop  offset="0.47" style="stop-color:#F8EF8E"/>
				<stop  offset="0.62" style="stop-color:#B58442"/>
				<stop  offset="0.81" style="stop-color:#BD7537"/>
				<stop  offset="1" style="stop-color:#9B4E27"/>
			</linearGradient>
			<use xlink:href="#SVGID_17_"  style="overflow:visible;fill-rule:evenodd;clip-rule:evenodd;fill:url(#SVGID_18_);"/>
			<clipPath id="SVGID_19_">
				<use xlink:href="#SVGID_17_"  style="overflow:visible;"/>
			</clipPath>
			<linearGradient id="SVGID_20_" gradientUnits="userSpaceOnUse" x1="9.6174" y1="28.8297" x2="29.7956" y2="29.0286">
				<stop  offset="0" style="stop-color:#7A4B20"/>
				<stop  offset="0.18" style="stop-color:#B58945"/>
				<stop  offset="0.33" style="stop-color:#DFA54D"/>
				<stop  offset="0.47" style="stop-color:#F8EF8E"/>
				<stop  offset="0.62" style="stop-color:#B58442"/>
				<stop  offset="0.81" style="stop-color:#BD7537"/>
				<stop  offset="1" style="stop-color:#9B4E27"/>
			</linearGradient>
			<rect x="15" y="27.9" class="st4" width="2.2" height="2"/>
		</g>
		<g>
			<defs>
				<polygon id="SVGID_21_" points="19.7,27.9 20.1,27.9 20.1,29.9 19.7,29.9 19.7,28.6 19,29.7 18.9,29.7 18.1,28.6 18.1,29.9 
					17.7,29.9 17.7,27.9 18.1,27.9 18.9,29.2 				"/>
			</defs>
			<linearGradient id="SVGID_22_" gradientUnits="userSpaceOnUse" x1="17.7007" y1="28.8924" x2="20.1187" y2="28.8924">
				<stop  offset="0" style="stop-color:#7A4B20"/>
				<stop  offset="0.18" style="stop-color:#B58945"/>
				<stop  offset="0.33" style="stop-color:#DFA54D"/>
				<stop  offset="0.47" style="stop-color:#F8EF8E"/>
				<stop  offset="0.62" style="stop-color:#B58442"/>
				<stop  offset="0.81" style="stop-color:#BD7537"/>
				<stop  offset="1" style="stop-color:#9B4E27"/>
			</linearGradient>
			<use xlink:href="#SVGID_21_"  style="overflow:visible;fill-rule:evenodd;clip-rule:evenodd;fill:url(#SVGID_22_);"/>
			<clipPath id="SVGID_23_">
				<use xlink:href="#SVGID_21_"  style="overflow:visible;"/>
			</clipPath>
			<linearGradient id="SVGID_24_" gradientUnits="userSpaceOnUse" x1="9.6173" y1="28.8008" x2="29.795" y2="28.9997">
				<stop  offset="0" style="stop-color:#7A4B20"/>
				<stop  offset="0.18" style="stop-color:#B58945"/>
				<stop  offset="0.33" style="stop-color:#DFA54D"/>
				<stop  offset="0.47" style="stop-color:#F8EF8E"/>
				<stop  offset="0.62" style="stop-color:#B58442"/>
				<stop  offset="0.81" style="stop-color:#BD7537"/>
				<stop  offset="1" style="stop-color:#9B4E27"/>
			</linearGradient>
			<rect x="17.7" y="27.9" class="st5" width="2.4" height="2"/>
		</g>
		<g>
			<defs>
				<rect id="SVGID_25_" x="20.9" y="27.9" width="0.4" height="2"/>
			</defs>
			<linearGradient id="SVGID_26_" gradientUnits="userSpaceOnUse" x1="20.9053" y1="28.8935" x2="21.3501" y2="28.8935">
				<stop  offset="0" style="stop-color:#7A4B20"/>
				<stop  offset="0.18" style="stop-color:#B58945"/>
				<stop  offset="0.33" style="stop-color:#DFA54D"/>
				<stop  offset="0.47" style="stop-color:#F8EF8E"/>
				<stop  offset="0.62" style="stop-color:#B58442"/>
				<stop  offset="0.81" style="stop-color:#BD7537"/>
				<stop  offset="1" style="stop-color:#9B4E27"/>
			</linearGradient>
			<use xlink:href="#SVGID_25_"  style="overflow:visible;fill-rule:evenodd;clip-rule:evenodd;fill:url(#SVGID_26_);"/>
			<clipPath id="SVGID_27_">
				<use xlink:href="#SVGID_25_"  style="overflow:visible;"/>
			</clipPath>
			<linearGradient id="SVGID_28_" gradientUnits="userSpaceOnUse" x1="9.6071" y1="28.78" x2="29.8022" y2="28.979">
				<stop  offset="0" style="stop-color:#7A4B20"/>
				<stop  offset="0.18" style="stop-color:#B58945"/>
				<stop  offset="0.33" style="stop-color:#DFA54D"/>
				<stop  offset="0.47" style="stop-color:#F8EF8E"/>
				<stop  offset="0.62" style="stop-color:#B58442"/>
				<stop  offset="0.81" style="stop-color:#BD7537"/>
				<stop  offset="1" style="stop-color:#9B4E27"/>
			</linearGradient>
			<rect x="20.9" y="27.9" class="st6" width="0.4" height="2"/>
		</g>
		<g>
			<defs>
				<path id="SVGID_29_" d="M24.9,28.5l0.5,0l0-0.5c-0.1-0.1-0.2-0.1-0.3-0.1h-1.4c-0.1,0-0.2,0.1-0.2,0.1v1.7
					c0.1,0.1,0.1,0.1,0.3,0.1h1.5c0.1,0,0.2-0.1,0.2-0.1v-0.5h-0.5v0.5h-1.1v-1.7h1.1V28.5z"/>
			</defs>
			<linearGradient id="SVGID_30_" gradientUnits="userSpaceOnUse" x1="23.4126" y1="28.8956" x2="25.38" y2="28.8956">
				<stop  offset="0" style="stop-color:#7A4B20"/>
				<stop  offset="0.18" style="stop-color:#B58945"/>
				<stop  offset="0.33" style="stop-color:#DFA54D"/>
				<stop  offset="0.47" style="stop-color:#F8EF8E"/>
				<stop  offset="0.62" style="stop-color:#B58442"/>
				<stop  offset="0.81" style="stop-color:#BD7537"/>
				<stop  offset="1" style="stop-color:#9B4E27"/>
			</linearGradient>
			<use xlink:href="#SVGID_29_"  style="overflow:visible;fill-rule:evenodd;clip-rule:evenodd;fill:url(#SVGID_30_);"/>
			<clipPath id="SVGID_31_">
				<use xlink:href="#SVGID_29_"  style="overflow:visible;"/>
			</clipPath>
			<linearGradient id="SVGID_32_" gradientUnits="userSpaceOnUse" x1="9.616" y1="28.75" x2="29.7946" y2="28.9488">
				<stop  offset="0" style="stop-color:#7A4B20"/>
				<stop  offset="0.18" style="stop-color:#B58945"/>
				<stop  offset="0.33" style="stop-color:#DFA54D"/>
				<stop  offset="0.47" style="stop-color:#F8EF8E"/>
				<stop  offset="0.62" style="stop-color:#B58442"/>
				<stop  offset="0.81" style="stop-color:#BD7537"/>
				<stop  offset="1" style="stop-color:#9B4E27"/>
			</linearGradient>
			<rect x="23.4" y="27.9" class="st7" width="2" height="2"/>
		</g>
		<g>
			<defs>
				<rect id="SVGID_33_" x="26.1" y="27.9" width="0.4" height="2"/>
			</defs>
			<linearGradient id="SVGID_34_" gradientUnits="userSpaceOnUse" x1="26.0998" y1="28.8935" x2="26.5446" y2="28.8935">
				<stop  offset="0" style="stop-color:#7A4B20"/>
				<stop  offset="0.18" style="stop-color:#B58945"/>
				<stop  offset="0.33" style="stop-color:#DFA54D"/>
				<stop  offset="0.47" style="stop-color:#F8EF8E"/>
				<stop  offset="0.62" style="stop-color:#B58442"/>
				<stop  offset="0.81" style="stop-color:#BD7537"/>
				<stop  offset="1" style="stop-color:#9B4E27"/>
			</linearGradient>
			<use xlink:href="#SVGID_33_"  style="overflow:visible;fill-rule:evenodd;clip-rule:evenodd;fill:url(#SVGID_34_);"/>
			<clipPath id="SVGID_35_">
				<use xlink:href="#SVGID_33_"  style="overflow:visible;"/>
			</clipPath>
			<linearGradient id="SVGID_36_" gradientUnits="userSpaceOnUse" x1="9.6021" y1="28.7287" x2="29.7972" y2="28.9278">
				<stop  offset="0" style="stop-color:#7A4B20"/>
				<stop  offset="0.18" style="stop-color:#B58945"/>
				<stop  offset="0.33" style="stop-color:#DFA54D"/>
				<stop  offset="0.47" style="stop-color:#F8EF8E"/>
				<stop  offset="0.62" style="stop-color:#B58442"/>
				<stop  offset="0.81" style="stop-color:#BD7537"/>
				<stop  offset="1" style="stop-color:#9B4E27"/>
			</linearGradient>
			<rect x="26.1" y="27.9" class="st8" width="0.4" height="2"/>
		</g>
		<g>
			<defs>
				<polygon id="SVGID_37_" points="28.3,28.1 28.3,29.9 27.9,29.9 27.9,28.1 27.1,28.1 27.1,27.9 29.1,27.9 29.1,28.1 				"/>
			</defs>
			<linearGradient id="SVGID_38_" gradientUnits="userSpaceOnUse" x1="27.088" y1="28.8924" x2="29.0694" y2="28.8924">
				<stop  offset="0" style="stop-color:#7A4B20"/>
				<stop  offset="0.18" style="stop-color:#B58945"/>
				<stop  offset="0.33" style="stop-color:#DFA54D"/>
				<stop  offset="0.47" style="stop-color:#F8EF8E"/>
				<stop  offset="0.62" style="stop-color:#B58442"/>
				<stop  offset="0.81" style="stop-color:#BD7537"/>
				<stop  offset="1" style="stop-color:#9B4E27"/>
			</linearGradient>
			<use xlink:href="#SVGID_37_"  style="overflow:visible;fill-rule:evenodd;clip-rule:evenodd;fill:url(#SVGID_38_);"/>
			<clipPath id="SVGID_39_">
				<use xlink:href="#SVGID_37_"  style="overflow:visible;"/>
			</clipPath>
			<linearGradient id="SVGID_40_" gradientUnits="userSpaceOnUse" x1="9.6155" y1="28.7104" x2="29.7941" y2="28.9093">
				<stop  offset="0" style="stop-color:#7A4B20"/>
				<stop  offset="0.18" style="stop-color:#B58945"/>
				<stop  offset="0.33" style="stop-color:#DFA54D"/>
				<stop  offset="0.47" style="stop-color:#F8EF8E"/>
				<stop  offset="0.62" style="stop-color:#B58442"/>
				<stop  offset="0.81" style="stop-color:#BD7537"/>
				<stop  offset="1" style="stop-color:#9B4E27"/>
			</linearGradient>
			<rect x="27.1" y="27.9" class="st9" width="2" height="2"/>
		</g>
		<g>
			<defs>
				<polygon id="SVGID_41_" points="29.3,27.9 29.8,27.9 30.4,28.9 31.1,27.9 31.5,27.9 30.6,29.1 30.6,29.9 30.2,29.9 30.2,29.1 
									"/>
			</defs>
			<linearGradient id="SVGID_42_" gradientUnits="userSpaceOnUse" x1="29.3007" y1="28.8927" x2="31.5289" y2="28.8927">
				<stop  offset="0" style="stop-color:#7A4B20"/>
				<stop  offset="0.18" style="stop-color:#B58945"/>
				<stop  offset="0.33" style="stop-color:#DFA54D"/>
				<stop  offset="0.47" style="stop-color:#F8EF8E"/>
				<stop  offset="0.62" style="stop-color:#B58442"/>
				<stop  offset="0.81" style="stop-color:#BD7537"/>
				<stop  offset="1" style="stop-color:#9B4E27"/>
			</linearGradient>
			<use xlink:href="#SVGID_41_"  style="overflow:visible;fill-rule:evenodd;clip-rule:evenodd;fill:url(#SVGID_42_);"/>
			<clipPath id="SVGID_43_">
				<use xlink:href="#SVGID_41_"  style="overflow:visible;"/>
			</clipPath>
			<linearGradient id="SVGID_44_" gradientUnits="userSpaceOnUse" x1="9.6157" y1="28.6877" x2="29.7938" y2="28.8866">
				<stop  offset="0" style="stop-color:#7A4B20"/>
				<stop  offset="0.18" style="stop-color:#B58945"/>
				<stop  offset="0.33" style="stop-color:#DFA54D"/>
				<stop  offset="0.47" style="stop-color:#F8EF8E"/>
				<stop  offset="0.62" style="stop-color:#B58442"/>
				<stop  offset="0.81" style="stop-color:#BD7537"/>
				<stop  offset="1" style="stop-color:#9B4E27"/>
			</linearGradient>
			<rect x="29.3" y="27.9" class="st10" width="2.2" height="2"/>
		</g>
	</g>
	<path class="st11" d="M7.8,27"/>
	<path class="st11" d="M11.3,30.6"/>
	<linearGradient id="SVGID_45_" gradientUnits="userSpaceOnUse" x1="11.0598" y1="35.0617" x2="29.1293" y2="35.0617">
		<stop  offset="0" style="stop-color:#7A4B20"/>
		<stop  offset="0.18" style="stop-color:#B58945"/>
		<stop  offset="0.33" style="stop-color:#DFA54D"/>
		<stop  offset="0.47" style="stop-color:#F8EF8E"/>
		<stop  offset="0.62" style="stop-color:#B58442"/>
		<stop  offset="0.81" style="stop-color:#BD7537"/>
		<stop  offset="1" style="stop-color:#9B4E27"/>
	</linearGradient>
	<path class="st12" d="M28.9,30.4c-3,3-5.9,6.1-8.9,9.1c-2.9-3-5.8-5.9-8.7-8.9"/>
	<linearGradient id="SVGID_46_" gradientUnits="userSpaceOnUse" x1="0.5007" y1="13.6084" x2="39.4993" y2="13.6084">
		<stop  offset="0" style="stop-color:#7A4B20"/>
		<stop  offset="0.18" style="stop-color:#B58945"/>
		<stop  offset="0.33" style="stop-color:#DFA54D"/>
		<stop  offset="0.47" style="stop-color:#F8EF8E"/>
		<stop  offset="0.62" style="stop-color:#B58442"/>
		<stop  offset="0.81" style="stop-color:#BD7537"/>
		<stop  offset="1" style="stop-color:#9B4E27"/>
	</linearGradient>
	<path class="st13" d="M7.8,27c-2.3-2.3-4.5-4.6-6.8-7C7.3,13.5,13.7,7,20,0.5L39,20c-2.2,2.3-4.4,4.5-6.6,6.8"/>
	<path class="st11" d="M8,26.8"/>
</g>
</svg>
